<svg width="256" height="256" viewBox="0 0 256 256" fill="none" xmlns="http://www.w3.org/2000/svg">
<path d="M64 192L128 128V255.999L64 192Z" fill="#593D29"/>
<path d="M191.999 192L128 255.999V128L191.999 192Z" fill="#593D29"/>
<path d="M63.9998 64L0 128L63.9998 192L128 128L63.9998 64Z" fill="#5F9F35"/>
<path d="M192 64L128 128L192 192L256 128L192 64Z" fill="#5F9F35"/>
<path d="M64 63.9998L0 128V0L64 63.9998Z" fill="#89B65B"/>
<path d="M191.999 63.9998L256 0L255.998 128L191.999 63.9998Z" fill="#89B65B"/>
<path d="M64.0001 192L0 255.999V128L64.0001 192Z" fill="#79553A"/>
<path d="M191.999 192L256 128L255.998 255.999L191.999 192Z" fill="#79553A"/>
</svg>
